<?xml version="1.0" encoding="utf-8"?>
<!-- Generator: Adobe Illustrator 16.0.0, SVG Export Plug-In . SVG Version: 6.00 Build 0)  -->
<!DOCTYPE svg PUBLIC "-//W3C//DTD SVG 1.1//EN" "http://www.w3.org/Graphics/SVG/1.1/DTD/svg11.dtd">
<svg version="1.1" xmlns="http://www.w3.org/2000/svg" xmlns:xlink="http://www.w3.org/1999/xlink" x="0px" y="0px" width="126px"
	 height="28px" viewBox="182.749 41.726 126 28" enable-background="new 182.749 41.726 126 28" xml:space="preserve">
<g id="Layer_2" display="none">
	<rect x="169.374" y="28.976" display="inline" width="156.25" height="55.25"/>
</g>
<g id="Layer_1">
	<path fill="#FFFFFF" d="M214.983,64.934c0,0,2.199,2.396,5.893,2.396c2.121,0,3.967-1.061,3.967-3.143
		c0-4.32-10.646-3.261-10.646-9.703c0-3.534,3.182-5.459,6.757-5.459c4.164,0,6.088,2.16,6.088,2.16l-1.218,2.042
		c0,0-1.688-1.807-4.949-1.807c-2.004,0-3.929,0.864-3.929,3.063c0,4.36,10.645,3.182,10.645,9.703c0,3.221-2.789,5.538-6.757,5.538
		c-4.792,0-7.306-2.867-7.306-2.867L214.983,64.934z M239.573,49.025c4.832,0,7.228,2.828,7.228,2.828l-1.375,2.003
		c0,0-2.2-2.396-5.774-2.396c-4.321,0-7.699,3.221-7.699,7.935c0,4.634,3.417,7.935,7.778,7.935c4.006,0,6.324-2.789,6.324-2.789
		l1.217,2.082c0,0-2.67,3.103-7.698,3.103c-5.853,0-10.371-4.202-10.371-10.33C229.203,53.307,233.76,49.025,239.573,49.025z
		 M260.668,57.038h1.1v-0.51c0-3.811-2.082-5.107-4.911-5.107c-3.26,0-5.578,1.886-5.578,1.886l-1.255-2.042
		c0,0,2.591-2.239,7.03-2.239c4.752,0,7.385,2.632,7.385,7.581v12.648h-2.553v-2.161c0-0.981,0.078-1.65,0.078-1.65h-0.078
		c0,0-1.651,4.282-6.601,4.282c-3.299,0-6.717-1.925-6.717-5.852C248.569,57.194,257.251,57.038,260.668,57.038z M255.719,67.447
		c3.771,0,6.049-3.929,6.049-7.345v-0.864h-1.139c-3.104,0-9.311,0.117-9.311,4.478C251.319,65.562,252.772,67.447,255.719,67.447z
		 M268.447,41.955h2.67v22.35c0,2.592,1.18,2.985,2.201,2.985c0.354,0,0.667-0.04,0.667-0.04v2.397c0,0-0.471,0.078-0.981,0.078
		c-1.651,0-4.557-0.511-4.557-4.831V41.955L268.447,41.955z M276.459,66.583h3.104v3.143h-3.104V66.583z M282.077,42.112h2.79v3.338
		h-2.79V42.112z M282.156,49.968h2.671v19.758h-2.671V49.968z M298.299,49.025c5.774,0,10.449,4.399,10.449,10.251
		c0,5.971-4.674,10.449-10.449,10.449c-5.773,0-10.448-4.478-10.448-10.449C287.851,53.424,292.526,49.025,298.299,49.025z
		 M298.299,67.328c4.242,0,7.699-3.456,7.699-8.052c0-4.477-3.457-7.816-7.699-7.816c-4.241,0-7.698,3.339-7.698,7.816
		C290.601,63.872,294.058,67.328,298.299,67.328z"/>
	<rect x="200.484" y="41.726" fill="#FFFFFF" width="7" height="28"/>
	<rect x="191.617" y="51.059" opacity="0.7" fill="#FFFFFF" enable-background="new    " width="7.001" height="18.667"/>
	<rect x="182.749" y="60.393" opacity="0.4" fill="#FFFFFF" enable-background="new    " width="7.001" height="9.333"/>
</g>
</svg>
